#Comment line ignore any data following # character 
#Hierarchical Translation and Rotation (.htr) file 
[Header]	
#Header keywords are followed by a single value 
FileType HTR		#Single word string
DataType HTRS		#Translation followed by rotation and scale data
FileVersion 1		#integer
NumSegments 64		#integer
NumFrames 3		#integer
DataFrameRate 30		#integer, data frame rate in this file
EulerRotationOrder ZYX
CalibrationUnits mm
RotationUnits Degrees
GlobalAxisofGravity Y
BoneLengthAxis Y
ScaleFactor 1.00
[SegmentNames&Hierarchy]
#CHILD	PARENT
Pinger_Root GLOBAL
Pelvis Pinger_Root
L_Hip Pelvis
R_Hip Pelvis
Rear_Leg01 Pelvis
Spine1 Pelvis
L_Leg01 L_Hip
L_Leg02 L_Leg01
L_Leg03 L_Leg02
L_Foot L_Leg03
L_Toe1_01 L_Foot
L_Toe2_01 L_Foot
L_Toe3_01 L_Foot
planeAlignerLeft L_Foot
L_Toe1_02 L_Toe1_01
L_Toe1_03 L_Toe1_02
L_Toe2_02 L_Toe2_01
L_Toe2_03 L_Toe2_02
L_Toe3_02 L_Toe3_01
L_Toe3_03 L_Toe3_02
planeLockWeightLeft planeAlignerLeft
R_Leg01 R_Hip
R_Leg02 R_Leg01
R_Leg03 R_Leg02
R_Foot R_Leg03
planeAlignerRight R_Foot
R_Toe1_01 R_Foot
R_Toe2_01 R_Foot
R_Toe3_01 R_Foot
planeLockWeightRight planeAlignerRight
R_Toe1_02 R_Toe1_01
R_Toe1_03 R_Toe1_02
R_Toe2_02 R_Toe2_01
R_Toe2_03 R_Toe2_02
R_Toe3_02 R_Toe3_01
R_Toe3_03 R_Toe3_02
Rear_Leg02 Rear_Leg01
Rear_Leg03 Rear_Leg02
Rear_Leg04 Rear_Leg03
Rear_Foot Rear_Leg04
planeAlignerCenter Rear_Foot
Rear_Toe1_01 Rear_Foot
Rear_Toe2_01 Rear_Foot
Rear_Toe3_01 Rear_Foot
planeLockWeightCenter planeAlignerCenter
Rear_Toe1_02 Rear_Toe1_01
Rear_Toe1_03 Rear_Toe1_02
Rear_Toe2_02 Rear_Toe2_01
Rear_Toe2_03 Rear_Toe2_02
Rear_Toe3_02 Rear_Toe3_01
Rear_Toe3_03 Rear_Toe3_02
Back_Bone Spine1
Head Spine1
Motor_Bone Back_Bone
Ping_Mechanism Back_Bone
BN_LookIK Head
bottomMouth Head
L_Mouth01 Head
L_mouthFront Head
mouthGun Head
R_Mouth01 Head
R_mouthFront Head
TopMouth Head
weapon_bone Head
[BasePosition]
#SegmentName Tx, Ty, Tz, Rx, Ry, Rz, BoneLength
Pinger_Root 0.000000 0.000000 0.000000 -90.000000 0.000000 0.000000 10.000000 
Pelvis 0.000000 0.000000 0.000000 0.000000 0.000000 0.000000 10.000000 
L_Hip 0.000000 0.000000 0.000000 0.000000 0.000000 0.000000 10.000000 
R_Hip 0.000000 0.000000 0.000000 0.000000 0.000000 0.000000 10.000000 
Rear_Leg01 0.000000 0.000000 0.000000 0.000000 0.000000 0.000000 10.000000 
Spine1 0.000000 0.000000 0.000000 0.000000 0.000000 0.000000 10.000000 
L_Leg01 0.000000 0.000000 0.000000 0.000000 0.000000 0.000000 10.000000 
L_Leg02 0.000000 0.000000 0.000000 0.000000 0.000000 0.000000 10.000000 
L_Leg03 0.000000 0.000000 0.000000 0.000000 0.000000 0.000000 10.000000 
L_Foot 0.000000 0.000000 0.000000 0.000000 0.000000 0.000000 10.000000 
L_Toe1_01 0.000000 0.000000 0.000000 0.000000 0.000000 0.000000 10.000000 
L_Toe2_01 0.000000 0.000000 0.000000 0.000000 0.000000 0.000000 10.000000 
L_Toe3_01 0.000000 0.000000 0.000000 0.000000 0.000000 0.000000 10.000000 
planeAlignerLeft 0.000000 0.000000 0.000000 0.000000 0.000000 0.000000 10.000000 
L_Toe1_02 0.000000 0.000000 0.000000 0.000000 0.000000 0.000000 10.000000 
L_Toe1_03 0.000000 0.000000 0.000000 0.000000 0.000000 0.000000 10.000000 
L_Toe2_02 0.000000 0.000000 0.000000 0.000000 0.000000 0.000000 10.000000 
L_Toe2_03 0.000000 0.000000 0.000000 0.000000 0.000000 0.000000 10.000000 
L_Toe3_02 0.000000 0.000000 0.000000 0.000000 0.000000 0.000000 10.000000 
L_Toe3_03 0.000000 0.000000 0.000000 0.000000 0.000000 0.000000 10.000000 
planeLockWeightLeft 0.000000 0.000000 0.000000 0.000000 0.000000 0.000000 10.000000 
R_Leg01 0.000000 0.000000 0.000000 0.000000 0.000000 0.000000 10.000000 
R_Leg02 0.000000 0.000000 0.000000 0.000000 0.000000 0.000000 10.000000 
R_Leg03 0.000000 0.000000 0.000000 0.000000 0.000000 0.000000 10.000000 
R_Foot 0.000000 0.000000 0.000000 0.000000 0.000000 0.000000 10.000000 
planeAlignerRight 0.000000 0.000000 0.000000 0.000000 0.000000 0.000000 10.000000 
R_Toe1_01 0.000000 0.000000 0.000000 0.000000 0.000000 0.000000 10.000000 
R_Toe2_01 0.000000 0.000000 0.000000 0.000000 0.000000 0.000000 10.000000 
R_Toe3_01 0.000000 0.000000 0.000000 0.000000 0.000000 0.000000 10.000000 
planeLockWeightRight 0.000000 0.000000 0.000000 0.000000 0.000000 0.000000 10.000000 
R_Toe1_02 0.000000 0.000000 0.000000 0.000000 0.000000 0.000000 10.000000 
R_Toe1_03 0.000000 0.000000 0.000000 0.000000 0.000000 0.000000 10.000000 
R_Toe2_02 0.000000 0.000000 0.000000 0.000000 0.000000 0.000000 10.000000 
R_Toe2_03 0.000000 0.000000 0.000000 0.000000 0.000000 0.000000 10.000000 
R_Toe3_02 0.000000 0.000000 0.000000 0.000000 0.000000 0.000000 10.000000 
R_Toe3_03 0.000000 0.000000 0.000000 0.000000 0.000000 0.000000 10.000000 
Rear_Leg02 0.000000 0.000000 0.000000 0.000000 0.000000 0.000000 10.000000 
Rear_Leg03 0.000000 0.000000 0.000000 0.000000 0.000000 0.000000 10.000000 
Rear_Leg04 0.000000 0.000000 0.000000 0.000000 0.000000 0.000000 10.000000 
Rear_Foot 0.000000 0.000000 0.000000 0.000000 0.000000 0.000000 10.000000 
planeAlignerCenter 0.000000 0.000000 0.000000 0.000000 0.000000 0.000000 10.000000 
Rear_Toe1_01 0.000000 0.000000 0.000000 0.000000 0.000000 0.000000 10.000000 
Rear_Toe2_01 0.000000 0.000000 0.000000 0.000000 0.000000 0.000000 10.000000 
Rear_Toe3_01 0.000000 0.000000 0.000000 0.000000 0.000000 0.000000 10.000000 
planeLockWeightCenter 0.000000 0.000000 0.000000 0.000000 0.000000 0.000000 10.000000 
Rear_Toe1_02 0.000000 0.000000 0.000000 0.000000 0.000000 0.000000 10.000000 
Rear_Toe1_03 0.000000 0.000000 0.000000 0.000000 0.000000 0.000000 10.000000 
Rear_Toe2_02 0.000000 0.000000 0.000000 0.000000 0.000000 0.000000 10.000000 
Rear_Toe2_03 0.000000 0.000000 0.000000 0.000000 0.000000 0.000000 10.000000 
Rear_Toe3_02 0.000000 0.000000 0.000000 0.000000 0.000000 0.000000 10.000000 
Rear_Toe3_03 0.000000 0.000000 0.000000 0.000000 0.000000 0.000000 10.000000 
Back_Bone 0.000000 0.000000 0.000000 0.000000 0.000000 0.000000 10.000000 
Head 0.000000 0.000000 0.000000 0.000000 0.000000 0.000000 10.000000 
Motor_Bone 0.000000 0.000000 0.000000 0.000000 0.000000 0.000000 10.000000 
Ping_Mechanism 0.000000 0.000000 0.000000 0.000000 0.000000 0.000000 10.000000 
BN_LookIK 0.000000 0.000000 0.000000 0.000000 0.000000 0.000000 10.000000 
bottomMouth 0.000000 0.000000 0.000000 0.000000 0.000000 0.000000 10.000000 
L_Mouth01 0.000000 0.000000 0.000000 0.000000 0.000000 0.000000 10.000000 
L_mouthFront 0.000000 0.000000 0.000000 0.000000 0.000000 0.000000 10.000000 
mouthGun 0.000000 0.000000 0.000000 0.000000 0.000000 0.000000 10.000000 
R_Mouth01 0.000000 0.000000 0.000000 0.000000 0.000000 0.000000 10.000000 
R_mouthFront 0.000000 0.000000 0.000000 0.000000 0.000000 0.000000 10.000000 
TopMouth 0.000000 0.000000 0.000000 0.000000 0.000000 0.000000 10.000000 
weapon_bone 0.000000 0.000000 0.000000 0.000000 0.000000 0.000000 10.000000 
#Beginning of Data. Separated by tabs
#Fr	Tx	Ty	Tz	Rx	Ry	Rz	SF
[Pinger_Root]
38 0.000000 0.000000 0.000000 -0.000075 -0.000000 -0.000020 0.000000
39 0.000000 0.000000 0.000000 -0.000075 -0.000000 -0.000020 0.000000
40 0.000000 0.000000 0.000000 -0.000075 -0.000000 -0.000020 0.000000
[Pelvis]
38 -548.153259 281.522552 3358.777588 -136.899780 -66.063644 146.679260 3414.837402
39 -646.613159 325.473022 3376.263184 -137.106415 -65.401718 148.123657 3452.997803
40 -757.071045 358.941864 3422.535156 -136.074356 -64.364647 148.195374 3523.597900
[L_Hip]
38 5.766392 125.831482 872.656799 -152.293610 -41.845699 57.260994 881.701050
39 5.766392 125.831482 872.656799 -152.293610 -41.845699 57.260994 881.701050
40 5.766392 125.831482 872.656799 -152.293610 -41.845695 57.260990 881.701050
[R_Hip]
38 5.765438 125.836372 -872.654907 38.087841 49.812687 125.703735 881.699829
39 5.765438 125.836372 -872.654907 38.087841 49.812687 125.703735 881.699829
40 5.765438 125.836372 -872.654907 38.087841 49.812687 125.703735 881.699829
[Rear_Leg01]
38 -192.298416 -925.602966 -0.001907 -170.221558 -30.651123 -125.557426 945.367432
39 -192.298416 -925.602966 -0.001907 -169.199615 -31.263245 -125.828545 945.367432
40 -192.298416 -925.602966 -0.001907 -168.391632 -31.015549 -127.227631 945.367432
[Spine1]
38 290.604584 5.007505 0.000477 -4.535600 24.908634 20.216183 290.647736
39 290.604584 5.007505 0.000477 -4.655681 25.092342 22.972372 290.647736
40 290.604584 5.007505 0.000477 -4.065083 25.895483 24.855375 290.647736
[L_Leg01]
38 761.932007 -0.002384 -0.069261 44.114681 -12.448700 -48.701832 761.932068
39 761.932007 -0.002384 -0.069261 44.357903 -11.135223 -50.261665 761.932068
40 761.932007 -0.002384 -0.069261 43.479465 -15.169077 -47.576645 761.932068
[L_Leg02]
38 1441.140503 -0.000954 -0.000715 2.503503 0.211163 -85.621101 1441.140503
39 1441.140503 -0.000954 -0.000715 4.639429 0.641096 -82.312065 1441.140503
40 1441.140503 -0.000954 -0.000715 5.362848 1.136839 -90.402710 1441.140503
[L_Leg03]
38 1686.963989 -0.000715 -0.000954 -0.076065 0.039531 130.864578 1686.963989
39 1686.963989 -0.000715 -0.000954 -0.083855 0.047932 132.852554 1686.963989
40 1686.963989 -0.000715 -0.000954 -0.095353 0.055743 136.065491 1686.963989
[L_Foot]
38 3041.570068 -30.715107 11.297464 -24.194550 16.082926 15.646039 3041.746094
39 3041.570068 -30.715107 11.297464 -22.343111 16.576071 13.798017 3041.746094
40 3041.570068 -30.715107 11.297464 -20.203730 16.717777 15.893785 3041.746094
[L_Toe1_01]
38 -188.216690 -224.732346 -21.137953 79.973030 -19.393690 167.868271 293.899567
39 -188.216690 -224.732346 -21.137953 79.233032 -18.895157 171.319061 293.899567
40 -188.216690 -224.732346 -21.137953 78.582451 -18.057537 176.364441 293.899567
[L_Toe2_01]
38 200.746536 -219.926590 148.838394 -73.981079 -26.763615 -51.150158 332.896027
39 200.746536 -219.926590 148.838394 -73.847801 -25.549112 -54.720856 332.896027
40 200.746536 -219.926590 148.838394 -73.305252 -23.963820 -59.473183 332.896027
[L_Toe3_01]
38 188.832520 -219.859131 -191.078659 -102.871384 38.665264 -36.131268 347.140900
39 188.832520 -219.859131 -191.078659 -105.126579 37.850948 -41.570683 347.140900
40 188.832520 -219.859131 -191.078659 -108.650093 35.878284 -49.548660 347.140900
[planeAlignerLeft]
38 30.327744 -414.592560 191.744583 -10.808053 -85.152893 -89.914558 457.791168
39 21.470745 -462.216949 185.269699 -10.796995 -84.838745 -89.927872 498.427917
40 8.498378 -530.489075 178.942032 -10.794338 -84.834335 -89.930359 559.920654
[L_Toe1_02]
38 413.761139 0.000477 0.000000 0.001434 -19.870619 0.001434 413.761139
39 413.761139 0.000477 0.000000 0.001430 -20.302568 0.001430 413.761139
40 413.761139 0.000477 0.000000 0.001423 -21.076792 0.001423 413.761139
[L_Toe1_03]
38 464.317322 0.000358 -0.000089 179.853012 89.084641 179.853012 464.317322
39 464.317322 0.000358 -0.000089 0.225923 89.403572 0.225923 464.317322
40 464.317322 0.000358 -0.000089 0.038330 86.490723 0.038330 464.317322
[L_Toe2_02]
38 342.235809 -0.000477 0.000238 0.001184 -74.674049 0.001184 342.235809
39 342.235809 -0.000477 0.000238 0.001186 -73.682083 0.001186 342.235809
40 342.235809 -0.000477 0.000238 0.001189 -71.717079 0.001189 342.235809
[L_Toe2_03]
38 420.210846 -0.000715 0.000000 -179.965302 88.193108 -179.961792 420.210846
39 420.210846 -0.000715 0.000000 -0.059336 88.855682 -0.055839 420.210846
40 420.210846 -0.000715 0.000000 0.021217 83.658264 0.021217 420.210846
[L_Toe3_02]
38 329.270111 0.000954 0.000000 0.004675 -84.730164 0.004675 329.270111
39 329.270111 0.000954 0.000000 0.004675 -84.706680 0.004675 329.270111
40 329.270111 0.000954 0.000000 0.004676 -84.554680 0.004676 329.270111
[L_Toe3_03]
38 439.137451 -0.001907 0.000954 179.993149 45.051178 -179.999283 439.137451
39 439.137451 -0.001907 0.000954 179.992996 47.633430 -179.999496 439.137451
40 439.137451 -0.001907 0.000954 179.992706 52.056503 -179.999908 439.137451
[planeLockWeightLeft]
38 999.999878 -0.000058 -0.000264 -0.011826 -0.004376 0.005620 999.999878
39 999.999939 -0.000073 -0.000259 -0.011826 -0.004376 0.005620 999.999939
40 999.999939 -0.000087 -0.000253 -0.011826 -0.004376 0.005620 999.999939
[R_Leg01]
38 761.455627 -0.001907 -0.000358 166.734344 -13.983493 1.425014 761.455688
39 761.455627 -0.001907 -0.000358 166.094025 -11.610488 3.916356 761.455688
40 761.455627 -0.001907 -0.000358 165.778366 -8.854477 8.436470 761.455688
[R_Leg02]
38 1441.140625 0.000000 -0.000238 -0.278455 -0.005561 -121.866219 1441.140625
39 1441.140625 0.000000 -0.000238 -0.205537 0.000606 -117.883148 1441.140625
40 1441.140625 0.000000 -0.000238 -0.082671 0.025590 -110.097267 1441.140625
[R_Leg03]
38 1686.963989 0.000954 0.001431 0.027761 -0.014057 117.734962 1686.963989
39 1686.963989 0.000954 0.001431 0.025284 -0.009616 116.790810 1686.963989
40 1686.963989 0.000954 0.001431 0.018577 -0.007771 115.403572 1686.963989
[R_Foot]
38 3041.560059 -30.531288 -11.204481 1.989166 9.252150 41.991177 3041.734131
39 3041.560059 -30.531288 -11.204481 3.500901 9.309096 41.643280 3041.734131
40 3041.560059 -30.531288 -11.204481 5.589283 9.393420 40.452522 3041.734131
[planeAlignerRight]
38 36.395500 -553.440491 -377.987915 -25.447453 -64.905464 -74.689957 671.189941
39 3.991157 -563.131042 -362.877655 -25.447453 -64.905464 -74.689957 669.934814
40 -8.623512 -556.903442 -355.993561 -26.083122 -65.407242 -74.114113 661.019836
[R_Toe1_01]
38 -188.383347 -224.864899 21.052242 44.215569 14.635508 -178.454010 294.101532
39 -188.383347 -224.864899 21.052242 44.916779 14.783952 -176.724121 294.101532
40 -188.383347 -224.864899 21.052242 45.481857 14.737542 -176.669098 294.101532
[R_Toe2_01]
38 200.637817 -220.002121 -148.787384 -92.565651 47.279236 -53.496342 332.857574
39 200.637817 -220.002121 -148.787384 -92.853752 47.265175 -54.427372 332.857574
40 200.637817 -220.002121 -148.787384 -93.008621 47.485458 -54.214611 332.857574
[R_Toe3_01]
38 188.606735 -220.092957 191.126343 -57.264301 -0.460667 -75.535866 347.192566
39 188.606735 -220.092957 191.126343 -57.089638 -1.404125 -77.217628 347.192566
40 188.606735 -220.092957 191.126343 -57.225533 -2.483919 -77.059830 347.192566
[planeLockWeightRight]
38 999.999573 0.000305 -0.000430 -0.011823 -0.004379 -0.000027 999.999573
39 999.999573 0.000305 -0.000437 -0.011823 -0.004379 -0.000027 999.999573
40 999.999573 0.000305 -0.000444 -0.011823 -0.004379 -0.000027 999.999573
[R_Toe1_02]
38 413.762085 0.000477 -0.000119 0.001403 -23.562040 0.001403 413.762085
39 413.762085 0.000477 -0.000119 0.001396 -24.446888 0.001396 413.762085
40 413.762085 0.000477 -0.000119 0.001394 -24.725292 0.001394 413.762085
[R_Toe1_03]
38 464.317810 0.000000 0.001088 0.009488 75.789680 0.009488 464.317810
39 464.317810 0.000000 0.001088 0.007067 70.881287 0.007067 464.317810
40 464.317810 0.000000 0.001088 0.006504 69.208397 0.006504 464.317810
[R_Toe2_02]
38 342.234741 -0.000954 0.000238 -0.002333 -79.608536 -0.002333 342.234741
39 342.234741 -0.000954 0.000238 -0.002332 -80.040474 -0.002332 342.234741
40 342.234741 -0.000954 0.000238 -0.002332 -80.212044 -0.002332 342.234741
[R_Toe2_03]
38 420.210846 0.000715 -0.000268 -179.995453 65.970840 -179.999023 420.210846
39 420.210846 0.000715 -0.000268 -179.995804 62.386417 -179.999390 420.210846
40 420.210846 0.000715 -0.000268 -179.995941 60.510826 -179.999557 420.210846
[R_Toe3_02]
38 329.270355 -0.000477 -0.000954 0.001187 -72.573730 0.001187 329.270355
39 329.270355 -0.000477 -0.000954 0.001187 -72.985306 0.001187 329.270355
40 329.270355 -0.000477 -0.000954 0.001185 -74.202011 0.001185 329.270355
[R_Toe3_03]
38 439.137939 0.000238 0.001431 0.012024 78.797585 0.012024 439.137939
39 439.137939 0.000238 0.001431 0.013119 79.735153 0.013119 439.137939
40 439.137939 0.000238 0.001431 0.018091 82.561058 0.018091 439.137939
[Rear_Leg02]
38 1162.777710 -0.029802 0.005960 8.312831 -12.071789 -104.476463 1162.777710
39 1162.777710 -0.029802 0.005960 9.054141 -13.836138 -103.261711 1162.777710
40 1162.777710 -0.029802 0.005960 8.522476 -13.438855 -102.426819 1162.777710
[Rear_Leg03]
38 607.192505 -0.013351 -0.073195 0.010301 -0.005482 72.393883 607.192505
39 607.192505 -0.013351 -0.073195 0.010317 -0.005452 72.063644 607.192505
40 607.192505 -0.013351 -0.073195 0.010332 -0.005422 71.733398 607.192505
[Rear_Leg04]
38 995.874512 -0.020504 -0.011921 -0.041545 -0.015590 76.222710 995.874573
39 995.874512 -0.020504 -0.011921 -0.041390 -0.015996 75.101875 995.874573
40 995.874512 -0.020504 -0.011921 -0.041310 -0.016200 74.535286 995.874573
[Rear_Foot]
38 3096.176270 -0.067472 -0.041425 -60.638031 75.658508 127.982010 3096.176270
39 3096.176270 -0.067472 -0.041425 -62.815613 74.112061 125.876587 3096.176270
40 3096.176270 -0.067472 -0.041425 -56.901764 73.307449 129.390488 3096.176270
[planeAlignerCenter]
38 33.167488 58.119434 -756.039368 12.240773 -0.001473 179.998184 758.995056
39 20.577614 70.803688 -761.660156 12.240769 -0.001473 179.998184 765.220764
40 17.996855 70.950928 -767.552124 12.240769 -0.001473 179.998184 771.034546
[Rear_Toe1_01]
38 0.653352 83.966492 -371.173737 -0.826701 41.145622 88.447708 380.553192
39 0.653352 83.966492 -371.173737 -0.404193 41.068092 89.213310 380.553192
40 0.653352 83.966492 -371.173737 -0.139185 42.863522 89.686836 380.553192
[Rear_Toe2_01]
38 178.200760 -294.826019 -362.060547 -6.407376 33.698772 -62.413456 499.765686
39 178.200760 -294.826019 -362.060547 -6.341484 33.987122 -62.633888 499.765686
40 178.200760 -294.826019 -362.060547 -6.683395 34.049236 -64.192123 499.765686
[Rear_Toe3_01]
38 -153.359680 -308.780914 -362.060852 3.300013 33.074032 -112.539627 499.952881
39 -153.359680 -308.780914 -362.060852 3.040641 33.385300 -113.610458 499.952881
40 -153.359680 -308.780914 -362.060852 3.106160 33.649517 -113.198608 499.952881
[planeLockWeightCenter]
38 1000.000488 0.000305 -0.000008 -0.011814 -0.004373 -0.000015 1000.000488
39 1000.000488 0.000305 -0.000000 -0.011814 -0.004373 -0.000015 1000.000488
40 500.006073 0.000305 0.000019 -0.011814 -0.004373 -0.000015 500.006073
[Rear_Toe1_02]
38 379.707825 0.194073 0.000477 -0.001189 -26.795290 0.012156 379.707855
39 379.707825 0.194073 0.000477 -0.000855 -24.027077 0.011990 379.707855
40 379.707825 0.194073 0.000477 -0.000132 -30.137302 0.006876 379.707855
[Rear_Toe1_03]
38 500.129700 0.165701 0.000119 0.000455 35.300930 0.012265 500.129761
39 500.129700 0.165701 0.000119 -0.000293 29.322166 0.011862 500.129761
40 500.129700 0.165701 0.000119 -0.000709 45.109901 0.006857 500.129761
[Rear_Toe2_02]
38 340.494507 0.000238 -0.000954 0.001182 -76.186981 0.001182 340.494507
39 340.494507 0.000238 -0.000954 0.001180 -77.798409 0.001180 340.494507
40 340.494507 0.000238 -0.000954 0.001180 -78.002113 0.001180 340.494507
[Rear_Toe2_03]
38 433.103577 0.000000 0.000238 0.013858 80.283905 0.013858 433.103546
39 433.103577 0.000000 0.000238 0.020065 83.293640 0.020065 433.103546
40 433.103577 0.000000 0.000238 0.021275 83.675354 0.021275 433.103546
[Rear_Toe3_02]
38 340.494141 -0.000358 -0.000477 0.001181 -77.392303 0.001181 340.494171
39 340.494141 -0.000358 -0.000477 0.001180 -77.912857 0.001180 340.494171
40 340.494141 -0.000358 -0.000477 0.001180 -78.135628 0.001180 340.494171
[Rear_Toe3_03]
38 433.103577 0.001431 -0.000238 -0.010572 82.528114 -0.007068 433.103546
39 433.103577 0.001431 -0.000238 -0.011887 83.498924 -0.008385 433.103546
40 433.103577 0.001431 -0.000238 -0.012595 83.923943 -0.009094 433.103546
[Back_Bone]
38 1312.175781 -701.934692 0.000954 2.790756 -1.457651 -85.682373 1488.125488
39 1312.175781 -701.934692 0.000954 2.790756 -1.457651 -85.682373 1488.125488
40 1312.175781 -701.934692 0.000954 2.790756 -1.457651 -85.682373 1488.125488
[Head]
38 1406.159424 809.709290 0.001431 -1.623609 2.697531 7.613082 1622.625488
39 1406.159424 809.709290 0.001431 -1.623609 2.697531 7.613082 1622.625488
40 1406.159424 809.709290 0.001431 -1.623609 2.697531 7.613082 1622.625488
[Motor_Bone]
38 1158.364380 -417.834747 0.000477 3.394448 -1.301977 -115.970810 1231.419434
39 1158.364380 -417.834747 0.000477 3.394448 -1.301977 -115.970810 1231.419434
40 1158.364380 -417.834747 0.000477 3.394448 -1.301977 -115.970810 1231.419434
[Ping_Mechanism]
38 1271.134399 -451.889069 -105.927780 0.000103 -0.000053 82.120995 1353.220947
39 1268.791382 -455.182770 -110.300354 0.000103 -0.000053 82.120995 1352.475220
40 1270.907227 -458.784119 -114.418671 0.000103 -0.000053 82.120995 1356.016113
[BN_LookIK]
38 193.241119 1380.371704 -0.002861 0.000000 89.965736 -31.038179 1393.832153
39 193.241119 1380.371704 -0.002861 0.000000 89.965736 -31.038179 1393.832153
40 193.241119 1380.371704 -0.002861 0.000000 89.965736 -31.038179 1393.832153
[bottomMouth]
38 -435.092926 615.759399 -0.000954 -0.000022 0.000016 73.527184 753.966492
39 -435.092926 615.759399 -0.000954 -0.000022 0.000016 73.527184 753.966492
40 -435.092926 615.759399 -0.000954 -0.000022 0.000016 73.527184 753.966492
[L_Mouth01]
38 554.440979 7.658243 838.222046 150.204178 23.759130 109.605339 1005.027161
39 554.440979 7.658243 838.222046 150.204178 23.759130 109.605339 1005.027161
40 554.440979 7.658243 838.222046 150.204178 23.759130 109.605339 1005.027161
[L_mouthFront]
38 551.629089 934.514771 339.150421 0.000081 2.804060 79.119301 1136.941284
39 551.629089 934.514771 339.150421 0.000081 2.804060 79.119301 1136.941284
40 551.629089 934.514771 339.150421 0.000081 2.804060 79.119301 1136.941284
[mouthGun]
38 55.332661 1627.420898 0.000000 0.000023 0.000009 -11.038128 1628.361328
39 55.332661 1627.420898 0.000000 0.000023 0.000009 -11.038128 1628.361328
40 55.332661 1627.420898 0.000000 0.000023 0.000009 -11.038128 1628.361328
[R_Mouth01]
38 554.442383 7.659197 -838.223938 29.795891 -23.759109 109.605331 1005.029541
39 554.442383 7.659197 -838.223938 29.795891 -23.759109 109.605331 1005.029541
40 554.442383 7.659197 -838.223938 29.795891 -23.759109 109.605331 1005.029541
[R_mouthFront]
38 551.629089 934.514282 -339.151367 0.000029 -2.803930 79.119133 1136.941162
39 551.629089 934.514282 -339.151367 0.000029 -2.803930 79.119133 1136.941162
40 551.629089 934.514282 -339.151367 0.000029 -2.803930 79.119133 1136.941162
[TopMouth]
38 461.269867 -56.106091 -0.008583 -0.000059 -0.000268 92.025169 464.669525
39 461.269867 -56.106091 -0.008583 -0.000059 -0.000268 92.025169 464.669525
40 461.269867 -56.106091 -0.008583 -0.000059 -0.000268 92.025169 464.669525
[weapon_bone]
38 -987.239868 1448.372803 0.001431 0.000000 89.965736 -31.038221 1752.833740
39 -987.239868 1448.372803 0.001431 0.000000 89.965736 -31.038221 1752.833740
40 -987.239868 1448.372803 0.001431 0.000000 89.965736 -31.038221 1752.833740
